<?xml version="1.0" standalone="no"?>
<!DOCTYPE svg PUBLIC "-//W3C//DTD SVG 20010904//EN"
 "http://www.w3.org/TR/2001/REC-SVG-20010904/DTD/svg10.dtd">
<svg version="1.0" xmlns="http://www.w3.org/2000/svg"
 width="1016.000000pt" height="1016.000000pt" viewBox="0 0 1016.000000 1016.000000"
 preserveAspectRatio="xMidYMid meet">

<g transform="translate(0.000000,1016.000000) scale(0.100000,-0.100000)"
fill="#000000" stroke="none">
<path d="M6770 7590 c0 -5 4 -11 9 -15 19 -11 -41 -122 -100 -184 -32 -35 -59
-68 -59 -73 0 -13 -85 -93 -132 -125 -37 -25 -47 -53 -30 -80 10 -16 82 30 82
52 0 8 5 15 11 15 11 0 36 21 126 107 37 35 48 28 39 -23 -5 -25 -19 -43 -54
-70 -26 -19 -50 -42 -55 -49 -4 -7 -35 -34 -69 -60 -36 -27 -62 -55 -63 -66
-2 -24 13 -36 21 -16 7 18 43 11 63 -12 12 -14 12 -13 6 7 -7 24 4 29 23 10 7
-7 12 -8 12 -2 0 6 -5 15 -12 22 -8 8 -8 12 -1 12 16 0 23 -26 16 -60 -8 -43
2 -37 27 15 12 25 28 45 36 45 8 0 14 4 14 9 0 16 93 78 141 94 65 22 111 8
170 -52 44 -46 47 -51 53 -123 8 -80 6 -88 -53 -210 l-28 -57 31 26 c29 24 31
24 34 7 2 -10 10 -38 19 -61 8 -23 16 -77 17 -121 1 -76 0 -81 -28 -107 -25
-23 -28 -30 -18 -46 19 -30 13 -70 -19 -124 -16 -27 -34 -62 -40 -77 -7 -18
-20 -29 -42 -33 -18 -3 -44 -11 -58 -16 -21 -8 -36 -6 -70 10 -24 11 -82 31
-129 45 -139 41 -165 50 -175 61 -12 13 -130 85 -139 85 -11 0 -91 61 -99 76
-10 18 1 132 14 140 12 7 12 24 0 24 -5 0 -12 -11 -15 -25 -4 -16 -13 -25 -23
-23 -9 2 -18 -3 -20 -9 -3 -7 0 -13 6 -13 6 0 11 -9 11 -20 0 -15 -7 -20 -24
-20 -38 0 -41 -18 -4 -23 33 -4 33 -4 -4 -5 -50 -3 -49 -18 2 -26 27 -4 58
-22 99 -56 33 -28 64 -50 69 -50 20 0 112 -100 112 -122 0 -33 -24 -74 -60
-105 -24 -20 -28 -28 -18 -34 11 -7 10 -11 -2 -20 -13 -9 -13 -10 0 -6 8 2 15
10 15 18 0 18 37 49 49 42 5 -4 1 -12 -9 -19 -17 -12 -16 -14 9 -25 14 -7 26
-17 26 -22 0 -6 -3 -7 -6 -4 -4 4 -19 -2 -34 -13 -16 -11 -33 -20 -39 -20 -6
0 -11 -5 -11 -11 0 -7 -9 -9 -21 -6 -16 4 -18 3 -9 -8 9 -11 16 -12 33 -2 12
7 24 15 27 18 3 4 16 10 29 14 12 4 39 18 58 30 40 28 106 40 169 31 50 -6
106 2 98 15 -3 5 -17 9 -31 9 -15 0 -24 3 -20 6 12 12 77 -6 77 -21 0 -8 -8
-15 -17 -15 -15 0 -16 -2 -3 -10 12 -8 13 -10 1 -10 -32 0 -214 -97 -296 -157
-10 -8 -52 -32 -98 -57 -51 -27 -107 -67 -131 -93 -29 -31 -35 -53 -9 -32 9 8
26 13 37 11 17 -2 18 -1 6 7 -8 5 -11 13 -7 17 3 4 13 1 22 -6 10 -8 15 -9 15
-1 0 6 -4 11 -10 11 -5 0 -7 7 -4 15 4 8 12 15 20 15 7 0 21 9 31 19 10 11 30
22 45 26 15 4 32 13 39 21 15 19 27 18 32 -3 4 -14 5 -13 6 4 1 28 14 35 43
24 12 -6 17 -10 11 -10 -7 -1 -13 -12 -13 -26 0 -14 -4 -25 -10 -25 -5 0 -10
-9 -10 -21 0 -16 -4 -19 -22 -13 -22 6 -22 6 2 -15 20 -19 22 -24 10 -31 -8
-6 -32 -10 -52 -10 -27 0 -38 -4 -38 -15 0 -11 -11 -15 -40 -15 -22 0 -40 4
-40 9 0 5 10 7 23 5 16 -3 14 -1 -6 7 -21 8 -31 8 -42 -1 -8 -6 -19 -9 -25 -5
-6 4 -16 2 -23 -4 -7 -5 -19 -6 -26 -2 -14 9 -101 -43 -101 -60 0 -16 63 -48
109 -55 30 -5 59 -2 90 10 25 9 55 16 66 16 30 0 217 95 253 128 18 16 39 32
47 36 8 3 15 10 15 16 0 5 6 10 13 10 7 0 23 10 37 23 35 33 120 81 128 73 7
-8 -105 -116 -120 -116 -6 0 -8 -8 -6 -18 4 -14 0 -18 -16 -18 -15 1 -20 -4
-18 -19 2 -17 1 -17 -8 -5 -9 13 -13 12 -30 -9 -11 -13 -23 -21 -27 -18 -3 4
-22 -6 -42 -21 -20 -15 -46 -33 -58 -39 -52 -29 -67 -39 -90 -59 -34 -31 -156
-74 -228 -81 -52 -5 -69 -2 -116 21 -81 38 -132 35 -175 -8 -74 -74 -26 -146
139 -210 52 -20 113 -40 134 -43 21 -3 49 -12 63 -19 14 -7 52 -24 85 -36 68
-26 80 -51 28 -56 -47 -5 -41 -15 23 -37 31 -11 67 -27 80 -37 13 -10 45 -28
71 -40 67 -29 223 -119 223 -128 0 -5 16 -18 35 -30 19 -12 35 -26 35 -31 0
-11 -126 -11 -205 0 -34 5 -79 18 -100 30 -51 26 -216 106 -275 133 -25 11
-56 26 -70 34 -101 54 -141 74 -151 74 -6 0 -47 18 -90 40 -44 22 -85 40 -92
40 -23 0 -84 66 -97 104 -20 62 -9 162 25 230 17 32 42 66 56 75 40 25 149
115 149 124 0 4 9 7 20 7 11 0 20 4 20 9 0 5 23 26 50 47 28 21 50 43 50 49 0
6 12 12 27 13 36 3 48 16 34 39 -11 17 -11 17 -9 -2 2 -11 -3 -20 -9 -21 -7
-1 -19 -2 -26 -3 -13 -1 -112 -75 -172 -129 -17 -15 -43 -36 -59 -47 -100 -71
-126 -98 -160 -168 -29 -59 -36 -83 -36 -133 0 -108 42 -188 116 -223 16 -7
36 -17 44 -22 8 -5 24 -13 35 -18 11 -5 50 -29 85 -53 74 -50 138 -88 229
-136 36 -18 80 -46 98 -63 19 -16 38 -29 43 -29 6 0 10 -6 10 -14 0 -11 -44
-15 -219 -21 -206 -6 -224 -5 -308 15 -48 12 -92 26 -98 30 -10 7 -125 42
-260 79 -38 10 -106 28 -150 40 -44 12 -93 28 -110 36 -16 8 -82 28 -145 46
-113 30 -206 76 -245 119 -10 11 -23 20 -29 20 -6 0 -22 7 -35 16 -44 31 -7
36 84 9 48 -14 97 -25 108 -25 11 0 28 -6 36 -13 19 -16 98 -41 178 -58 58
-12 59 -11 146 30 49 24 86 48 84 54 -3 11 -119 34 -277 56 -36 5 -101 15
-145 21 -222 31 -306 54 -325 90 -12 23 -32 27 -24 5 4 -8 1 -15 -5 -15 -6 0
-11 -5 -11 -11 0 -8 5 -8 15 1 13 11 17 8 26 -19 6 -17 15 -28 20 -25 5 3 9 0
9 -5 0 -6 -6 -11 -12 -11 -9 0 -8 -4 2 -10 8 -5 10 -10 4 -10 -17 0 -70 29
-66 36 2 3 1 8 -2 12 -3 3 -6 -2 -6 -10 0 -9 -6 -19 -12 -21 -7 -3 -3 -6 10
-6 22 -1 64 -31 43 -31 -5 0 -13 4 -16 10 -6 10 -105 10 -105 0 0 -3 -46 -6
-102 -7 -57 -1 -130 -6 -163 -11 -43 -7 1 -8 160 -5 l220 5 48 -36 c26 -20 47
-41 47 -45 0 -19 202 -141 233 -141 8 0 25 -8 38 -18 22 -17 324 -142 343
-142 4 0 20 -8 34 -18 26 -18 311 -132 330 -132 5 0 25 -11 45 -24 20 -14 68
-36 108 -51 71 -25 82 -26 428 -35 196 -5 389 -10 429 -10 51 0 72 -4 70 -11
-7 -22 -201 -90 -603 -212 -22 -6 -56 -20 -75 -29 -43 -22 -86 -23 -94 -2 -15
38 -5 75 29 112 19 21 39 51 45 66 10 27 10 28 -17 21 -16 -3 -35 -13 -43 -20
-12 -11 -199 -103 -350 -174 -14 -6 -40 -21 -58 -32 -37 -24 -186 -83 -347
-138 -60 -20 -120 -42 -132 -49 -35 -19 -213 -62 -285 -69 -68 -6 -68 -6 -68
19 0 32 16 51 108 123 40 32 70 60 68 63 -3 3 -11 0 -18 -5 -48 -37 -450 -172
-627 -210 -140 -30 -140 -41 0 -42 112 -1 181 -11 176 -25 -2 -6 -31 -21 -66
-32 -34 -12 -72 -26 -84 -32 -12 -5 -74 -22 -137 -36 -168 -39 -220 -55 -220
-68 0 -14 288 -6 430 12 226 28 530 91 605 125 17 8 68 25 115 40 128 39 361
127 412 155 44 24 37 1 -17 -60 -47 -53 -125 -165 -125 -181 0 -5 6 -9 13 -9
30 1 422 128 587 191 115 44 139 54 270 114 269 125 300 138 305 133 3 -3 -12
-17 -33 -32 -54 -37 -182 -173 -182 -193 0 -13 8 -15 48 -10 58 8 242 78 278
106 15 12 31 21 36 21 5 0 30 9 55 21 25 11 47 18 50 16 5 -5 -31 -51 -57 -73
-8 -7 -51 -42 -95 -78 -44 -36 -99 -82 -121 -101 -69 -57 -134 -105 -143 -105
-5 0 -14 -7 -21 -15 -7 -8 -9 -15 -4 -15 14 0 247 112 289 139 22 14 114 63
205 109 91 46 167 87 170 92 3 4 75 41 160 83 85 41 171 86 190 99 19 13 50
30 69 38 30 12 34 12 43 -3 5 -9 18 -17 28 -17 59 0 6 -61 -102 -120 -32 -17
-70 -43 -85 -59 -16 -16 -44 -36 -63 -46 -48 -25 -111 -67 -107 -72 7 -6 81
27 272 123 199 99 278 124 291 90 4 -10 -5 -29 -24 -50 -16 -19 -31 -38 -33
-43 -7 -17 -312 -247 -418 -316 -36 -23 -67 -48 -69 -54 -5 -18 129 -16 228 2
194 35 573 159 595 195 7 12 -2 10 -120 -21 -96 -25 -205 -41 -232 -34 -31 7
-29 32 6 86 42 64 267 289 289 289 6 0 25 17 44 39 18 21 65 60 103 86 65 44
61 52 -10 20 -124 -55 -190 -72 -211 -54 -18 15 -11 40 29 99 45 67 284 311
356 365 36 26 77 75 63 75 -18 0 -100 -38 -107 -49 -5 -10 -187 -101 -200
-101 -3 0 11 21 30 46 28 36 35 55 35 90 0 40 -5 49 -58 102 -31 31 -87 74
-122 95 -95 56 -96 56 -130 143 -17 43 -37 88 -44 99 -6 11 -25 52 -40 91 -27
70 -28 72 -11 105 16 30 76 91 111 112 7 4 63 25 125 47 62 22 115 44 118 48
3 5 16 14 28 21 30 16 56 66 47 94 -17 55 -76 90 -150 88 -48 -1 -54 2 -87 39
-20 21 -48 57 -62 78 -21 33 -102 102 -118 102 -2 0 -41 20 -86 45 -146 81
-298 103 -499 72 -45 -7 -87 -10 -94 -6 -6 4 -8 17 -5 30 4 13 12 49 18 79 6
30 20 77 31 105 24 57 24 78 4 245 -45 366 -59 429 -94 415 -8 -3 -22 -5 -33
-5 -27 0 -24 -12 11 -46 33 -33 35 -40 17 -59 -11 -11 -16 -10 -25 6 -7 10
-17 19 -23 19 -6 0 -26 7 -45 16 -26 12 -51 15 -94 11 -83 -7 -77 24 18 88 50
33 42 45 -29 45 -56 0 -109 17 -109 35 0 18 57 39 100 37 34 -2 33 -1 -12 13
-57 19 -63 27 -40 54 16 21 19 21 52 6 19 -8 46 -22 60 -31 16 -11 13 -5 -11
18 -20 20 -42 37 -50 40 -10 3 -14 22 -14 63 0 48 -3 58 -17 61 -10 1 -18 -2
-18 -6z m85 -310 c-3 -5 -11 -10 -16 -10 -6 0 -7 5 -4 10 3 6 11 10 16 10 6 0
7 -4 4 -10z m-265 -40 c0 -5 -2 -10 -4 -10 -3 0 -8 5 -11 10 -3 6 -1 10 4 10
6 0 11 -4 11 -10z m-25 -20 c3 -5 1 -10 -4 -10 -6 0 -11 5 -11 10 0 6 2 10 4
10 3 0 8 -4 11 -10z m-50 -60 c3 -6 -1 -7 -9 -4 -18 7 -21 14 -7 14 6 0 13 -4
16 -10z m20 -120 c-3 -5 -14 -10 -23 -9 -14 0 -13 2 3 9 27 11 27 11 20 0z
m472 -822 c-3 -8 -6 -5 -6 6 -1 11 2 17 5 13 3 -3 4 -12 1 -19z m-22 -66 c-3
-3 -11 0 -18 7 -9 10 -8 11 6 5 10 -3 15 -9 12 -12z m-215 -8 c2 -3 -2 -9 -9
-13 -11 -7 -11 -9 0 -13 8 -3 -10 -6 -38 -6 -56 -1 -67 5 -52 28 6 10 9 11 9
3 0 -7 11 -13 24 -13 27 0 44 16 24 23 -7 2 -2 2 12 0 14 -3 27 -7 30 -9z
m-125 -4 c-11 -5 -29 -12 -40 -16 -15 -6 -6 -10 40 -20 46 -9 53 -12 30 -14
-54 -5 -89 1 -101 18 -15 21 -13 23 33 32 51 10 62 10 38 0z m-115 -21 c0 -5
7 -9 15 -9 8 0 15 -7 15 -15 0 -8 5 -15 12 -15 31 0 -5 -11 -51 -16 -33 -3
-51 -1 -51 6 0 6 5 8 11 4 8 -5 8 -1 0 14 -19 36 -14 49 19 44 17 -2 30 -8 30
-13z m283 4 c-7 -2 -19 -2 -25 0 -7 3 -2 5 12 5 14 0 19 -2 13 -5z m374 -26
c16 -17 16 -233 -1 -300 -19 -75 -71 -176 -95 -184 -22 -6 -53 -21 -71 -33
-31 -20 -104 -50 -122 -50 -27 0 -22 19 10 32 26 12 57 36 130 106 29 27 32
35 21 48 -29 35 -199 -4 -236 -54 -11 -15 -30 -57 -42 -93 -12 -36 -27 -73
-34 -82 -31 -40 -153 -118 -208 -133 -33 -9 -61 -20 -64 -24 -6 -9 87 -45 155
-61 30 -6 70 -15 88 -20 45 -10 52 -7 89 49 18 26 44 60 58 76 14 16 25 35 25
42 0 17 89 74 203 128 53 26 97 51 97 56 0 6 35 27 78 48 120 59 252 135 252
144 0 13 -18 9 -27 -5 -9 -14 -269 -127 -292 -127 -5 0 6 64 26 145 10 43 17
112 17 180 l1 110 50 3 c28 2 164 1 303 -3 224 -6 252 -9 252 -24 0 -37 -58
-121 -141 -204 -83 -83 -99 -93 -256 -172 -92 -47 -169 -88 -172 -93 -3 -4
-72 -40 -154 -81 -121 -60 -150 -79 -164 -104 -9 -18 -31 -45 -49 -62 -19 -16
-58 -61 -87 -100 -57 -75 -60 -76 -142 -61 l-40 8 47 -44 c99 -92 235 -209
272 -234 l39 -27 102 26 102 27 124 -15 c68 -9 130 -18 138 -20 8 -3 75 -14
150 -25 161 -24 263 -50 269 -69 4 -12 -22 -13 -169 -8 -96 4 -301 7 -456 7
l-282 0 -133 136 c-124 127 -241 229 -380 332 -32 23 -61 42 -66 42 -4 0 -14
5 -22 10 -12 8 -5 19 40 60 30 28 86 71 123 96 37 25 82 60 100 78 28 28 169
126 182 126 11 0 75 59 113 104 54 65 91 189 78 262 -4 17 -3 34 1 38 10 10
159 4 170 -7z m-392 -98 c11 -16 1 -19 -13 -3 -7 8 -8 14 -3 14 5 0 13 -5 16
-11z m-65 -19 c0 -5 -5 -10 -11 -10 -5 0 -7 5 -4 10 3 6 8 10 11 10 2 0 4 -4
4 -10z m45 -20 c3 -5 1 -10 -4 -10 -6 0 -11 5 -11 10 0 6 2 10 4 10 3 0 8 -4
11 -10z m-110 -20 c3 -6 -1 -7 -9 -4 -18 7 -21 14 -7 14 6 0 13 -4 16 -10z
m-28 -16 c-3 -3 -12 -4 -19 -1 -8 3 -5 6 6 6 11 1 17 -2 13 -5z m-31 -29 c-21
-16 -32 -13 -21 4 3 6 14 11 23 11 15 -1 15 -2 -2 -15z m-56 -25 c0 -5 -5 -10
-11 -10 -5 0 -7 5 -4 10 3 6 8 10 11 10 2 0 4 -4 4 -10z m123 -84 c4 -10 1
-13 -9 -9 -15 6 -19 23 -5 23 5 0 11 -7 14 -14z m-73 -68 c0 -5 -8 -4 -19 1
-10 6 -22 7 -26 3 -5 -4 -5 -2 -2 5 8 13 47 6 47 -9z m1144 -7 c3 -5 -8 -14
-24 -21 -17 -7 -44 -29 -60 -49 -17 -20 -41 -47 -53 -61 -31 -33 -98 -126
-126 -172 -13 -21 -27 -38 -32 -38 -26 0 -3 -28 44 -54 28 -16 63 -39 77 -52
14 -12 37 -27 53 -33 28 -11 36 -29 15 -35 -7 -2 -135 -28 -284 -57 l-271 -53
-103 28 c-57 15 -115 32 -129 38 -25 9 -25 10 -7 24 11 7 40 21 65 31 25 9 57
25 70 35 13 10 53 27 88 38 35 11 93 33 129 50 36 16 68 30 72 30 3 0 43 14
89 31 82 31 82 32 153 125 38 51 70 97 70 100 0 4 22 29 50 56 37 35 57 48 79
48 16 0 32 -4 35 -9z m-974 -15 c0 -3 -4 -8 -10 -11 -5 -3 -10 -1 -10 4 0 6 5
11 10 11 6 0 10 -2 10 -4z m-560 -50 c0 -8 -13 -16 -29 -18 -21 -3 -28 -1 -24
9 3 7 9 11 13 8 5 -3 11 -1 15 5 9 15 25 12 25 -4z m207 8 c-3 -3 -12 -4 -19
-1 -8 3 -5 6 6 6 11 1 17 -2 13 -5z m-147 -16 c0 -6 -3 -8 -7 -5 -3 4 -12 2
-20 -5 -7 -6 -17 -8 -20 -4 -8 8 16 26 35 26 6 0 12 -5 12 -12z m-1510 -358
c0 -5 -7 -10 -15 -10 -8 0 -15 5 -15 10 0 6 7 10 15 10 8 0 15 -4 15 -10z m60
-31 c18 -15 20 -19 7 -15 -10 3 -22 6 -27 6 -4 0 -10 7 -14 15 -8 21 4 18 34
-6z m3024 -138 c12 -10 36 -26 53 -35 38 -19 103 -74 103 -87 0 -15 -58 -39
-96 -39 -41 0 -496 60 -503 66 -8 8 7 14 100 43 52 17 126 41 164 55 80 29
146 28 179 -3z m-481 -566 c48 -4 87 -10 87 -14 0 -11 -294 -141 -317 -141 -6
0 -22 -9 -36 -20 -49 -39 -279 -106 -344 -101 -34 3 1 74 62 131 96 90 130
119 137 120 4 0 15 9 25 19 10 11 29 21 43 23 28 3 207 -5 343 -17z"/>
<path d="M6493 7583 c9 -2 23 -2 30 0 6 3 -1 5 -18 5 -16 0 -22 -2 -12 -5z"/>
<path d="M6708 7545 c-21 -24 -38 -47 -38 -52 0 -11 -37 -43 -51 -43 -6 0 -9
14 -7 33 3 28 0 32 -22 32 -23 0 -25 -5 -30 -52 -3 -29 -10 -56 -15 -61 -6 -5
-23 -18 -39 -30 -19 -15 -23 -22 -13 -22 9 0 19 5 22 10 10 16 25 12 19 -5 -4
-8 -12 -15 -20 -15 -8 0 -14 -4 -14 -10 0 -24 33 -6 92 50 35 33 70 66 78 74
21 19 50 55 50 63 0 3 7 14 16 24 9 10 14 24 12 32 -2 10 -15 1 -40 -28z"/>
<path d="M6031 7418 c-1 -15 4 -30 9 -33 12 -7 12 12 0 40 -8 18 -9 17 -9 -7z"/>
<path d="M6225 7400 c-3 -5 -2 -10 4 -10 5 0 13 5 16 10 3 6 2 10 -4 10 -5 0
-13 -4 -16 -10z"/>
<path d="M6271 7355 c-1 -19 26 -44 55 -50 l29 -7 -25 21 c-14 11 -30 21 -37
21 -6 0 -14 6 -16 13 -3 6 -6 8 -6 2z"/>
<path d="M6940 7351 c0 -5 5 -13 10 -16 6 -3 10 -2 10 4 0 5 -4 13 -10 16 -5
3 -10 2 -10 -4z"/>
<path d="M6418 7322 c-16 -9 -28 -20 -28 -24 0 -12 48 13 54 28 7 17 7 17 -26
-4z"/>
<path d="M5954 7295 c11 -8 22 -12 25 -9 6 6 -19 24 -34 24 -5 -1 -1 -7 9 -15z"/>
<path d="M5973 7210 c-28 -47 -28 -46 -3 -53 11 -3 20 -14 20 -25 0 -11 7 -25
15 -32 8 -7 15 -17 15 -22 0 -5 18 -33 40 -63 22 -30 40 -59 40 -64 0 -5 5
-13 10 -16 17 -11 7 16 -32 81 -33 56 -56 117 -76 201 l-7 32 -22 -39z m27
-31 c0 -26 -2 -30 -15 -19 -11 9 -12 16 -2 31 16 25 17 24 17 -12z"/>
<path d="M6172 7222 c28 -23 78 -30 78 -10 0 6 -3 9 -6 6 -5 -6 -35 1 -79 18
-15 5 -13 1 7 -14z"/>
<path d="M6360 7224 l-45 -14 39 5 c22 2 44 9 50 15 5 5 8 9 6 9 -3 -1 -25 -8
-50 -15z"/>
<path d="M6102 7072 c25 -46 38 -62 49 -62 15 0 10 19 -12 41 -11 11 -18 23
-15 27 4 3 13 -3 22 -14 12 -15 14 -15 11 -3 -4 13 -1 15 15 11 13 -3 16 -7 8
-12 -8 -5 -7 -9 5 -14 28 -10 45 -7 45 9 0 8 8 15 18 15 13 0 14 -2 3 -9 -11
-7 -11 -10 0 -15 11 -5 11 -7 2 -12 -7 -3 -13 -11 -13 -17 0 -6 13 1 28 16 15
15 35 27 44 27 8 0 22 7 29 16 12 15 10 16 -19 10 -20 -5 -49 -2 -81 9 -35 11
-55 13 -74 6 -15 -6 -38 -7 -56 -1 l-30 8 21 -36z m108 8 c0 -5 -2 -10 -4 -10
-3 0 -8 5 -11 10 -3 6 -1 10 4 10 6 0 11 -4 11 -10z"/>
<path d="M5936 7055 c6 -53 28 -105 44 -105 15 0 12 15 -10 43 -11 14 -20 36
-21 49 0 12 -5 32 -10 43 -6 14 -7 5 -3 -30z"/>
<path d="M6427 7093 c-4 -3 -7 -11 -7 -17 0 -6 5 -5 12 2 6 6 9 14 7 17 -3 3
-9 2 -12 -2z"/>
<path d="M6445 7020 c-3 -5 1 -10 9 -10 9 0 16 5 16 10 0 6 -4 10 -9 10 -6 0
-13 -4 -16 -10z"/>
<path d="M6170 6996 c0 -18 35 -22 46 -4 4 7 3 8 -5 4 -6 -4 -18 -2 -26 4 -12
10 -15 9 -15 -4z"/>
<path d="M6365 6960 c-3 -5 -1 -10 4 -10 6 0 11 5 11 10 0 6 -2 10 -4 10 -3 0
-8 -4 -11 -10z"/>
<path d="M6686 6700 c-11 -22 -23 -40 -27 -40 -4 0 -10 -8 -12 -17 -4 -15 -6
-15 -12 5 -4 12 -11 22 -16 22 -16 0 -9 -26 16 -60 30 -40 33 -80 7 -80 -10 0
-43 7 -74 15 -31 8 -67 16 -80 19 -12 2 -36 9 -51 15 -40 15 -67 14 -67 -4 0
-16 -12 -20 -23 -8 -4 3 -2 12 4 20 9 10 7 13 -10 13 -11 0 -21 5 -21 10 0 6
-12 10 -26 10 -21 0 -24 -3 -15 -13 6 -8 7 -18 3 -22 -4 -5 1 -5 11 -2 10 4
17 2 17 -5 0 -6 3 -8 7 -5 3 4 11 1 17 -7 6 -7 36 -22 66 -34 46 -18 82 -21
217 -24 156 -3 199 4 109 17 -38 6 -45 11 -50 35 -5 28 23 130 44 155 9 11 4
25 -9 25 -3 0 -15 -18 -25 -40z m-266 -140 c0 -5 -7 -10 -15 -10 -8 0 -15 5
-15 10 0 6 7 10 15 10 8 0 15 -4 15 -10z m37 -16 c-3 -3 -12 -4 -19 -1 -8 3
-5 6 6 6 11 1 17 -2 13 -5z"/>
<path d="M6580 6681 c0 -5 5 -13 10 -16 6 -3 10 -2 10 4 0 5 -4 13 -10 16 -5
3 -10 2 -10 -4z"/>
<path d="M6237 6629 c7 -7 15 -10 18 -7 3 3 -2 9 -12 12 -14 6 -15 5 -6 -5z"/>
<path d="M6089 6584 c-32 -17 -57 -44 -40 -44 6 0 11 4 11 10 0 5 11 12 24 16
14 3 27 12 30 20 3 8 4 14 3 13 -1 -1 -14 -7 -28 -15z"/>
<path d="M5761 6544 c0 -11 3 -14 6 -6 3 7 2 16 -1 19 -3 4 -6 -2 -5 -13z"/>
<path d="M6160 6529 c0 -5 5 -7 10 -4 6 3 10 8 10 11 0 2 -4 4 -10 4 -5 0 -10
-5 -10 -11z"/>
<path d="M5950 6500 c-8 -5 -11 -12 -7 -16 4 -4 13 -2 19 4 15 15 7 24 -12 12z"/>
<path d="M6130 6490 c0 -5 4 -10 9 -10 6 0 13 5 16 10 3 6 -1 10 -9 10 -9 0
-16 -4 -16 -10z"/>
<path d="M5860 6475 c0 -8 -5 -23 -11 -33 -9 -15 -8 -23 7 -40 24 -28 47 -28
85 0 27 20 32 21 42 8 7 -8 22 -16 35 -17 38 -4 24 12 -23 26 -39 12 -48 11
-63 -1 -11 -10 -25 -12 -42 -7 -16 4 -19 7 -7 8 9 1 17 6 17 12 0 6 7 9 15 6
8 -4 17 -2 20 3 4 6 -2 10 -12 10 -22 1 -55 24 -46 33 3 4 1 7 -5 7 -7 0 -12
-7 -12 -15z"/>
<path d="M5625 6460 c10 -11 22 -20 27 -20 4 0 -1 9 -12 20 -11 11 -23 20 -27
20 -3 0 2 -9 12 -20z"/>
<path d="M5710 6453 c0 -6 10 -21 23 -35 13 -14 21 -30 19 -36 -2 -7 6 -12 20
-12 17 0 20 -3 9 -9 -8 -5 -21 -7 -30 -4 -9 2 2 -12 23 -31 41 -38 56 -44 56
-24 0 7 9 -4 20 -25 12 -21 37 -53 57 -70 20 -18 41 -36 47 -42 6 -5 27 -22
46 -37 19 -14 61 -51 93 -82 58 -55 93 -72 80 -40 -3 9 -9 12 -12 7 -3 -4 -20
7 -38 24 l-31 33 26 -7 c24 -6 26 -5 13 10 -13 16 -8 22 13 18 5 -1 13 4 18
11 6 9 8 7 6 -7 -2 -13 3 -20 17 -22 11 -1 14 0 7 3 -9 4 -5 13 15 30 20 17
29 20 35 11 12 -19 9 -27 -6 -21 -8 3 -17 1 -20 -5 -8 -12 27 -24 74 -26 19
-1 45 -6 58 -10 14 -5 22 -3 22 4 0 6 -8 11 -18 11 -9 0 -72 54 -140 120 -117
115 -143 133 -157 109 -4 -6 0 -9 11 -7 13 2 19 -4 20 -19 1 -14 -4 -23 -13
-23 -8 0 -11 5 -7 11 4 7 -1 7 -16 -1 -12 -7 -20 -8 -17 -2 4 5 -5 14 -19 21
-20 9 -24 16 -18 34 11 37 10 41 -12 45 -11 1 -28 -6 -39 -18 -10 -11 -24 -20
-31 -20 -28 0 -130 63 -166 102 -21 22 -38 36 -38 31z m279 -126 c-15 -13 -69
-34 -69 -27 0 5 12 13 28 18 28 11 49 15 41 9z m-84 -27 c-3 -5 -15 -10 -26
-10 -10 0 -19 5 -19 10 0 6 12 10 26 10 14 0 23 -4 19 -10z m219 -59 c-6 -6
-24 19 -24 34 1 6 7 1 15 -9 8 -11 12 -22 9 -25z m-214 14 c7 -8 8 -15 2 -15
-5 0 -15 7 -22 15 -7 8 -8 15 -2 15 5 0 15 -7 22 -15z m82 -77 c-6 -6 -15 -8
-19 -4 -4 4 -1 11 7 16 19 12 27 3 12 -12z m188 18 c0 -3 -4 -8 -10 -11 -5 -3
-10 -1 -10 4 0 6 5 11 10 11 6 0 10 -2 10 -4z m-133 -52 c-3 -3 -12 -4 -19 -1
-8 3 -5 6 6 6 11 1 17 -2 13 -5z m33 -13 c0 -5 -7 -11 -15 -15 -15 -5 -20 5
-8 17 9 10 23 9 23 -2z m120 -1 c0 -5 -4 -10 -10 -10 -5 0 -10 5 -10 10 0 6 5
10 10 10 6 0 10 -4 10 -10z m80 -36 c0 -8 -4 -14 -10 -14 -5 0 -10 9 -10 21 0
11 5 17 10 14 6 -3 10 -13 10 -21z"/>
<path d="M5550 6405 c0 -3 9 -15 20 -27 22 -24 27 -13 6 15 -13 16 -26 23 -26
12z"/>
<path d="M5705 6390 c10 -11 20 -20 22 -20 2 0 -1 9 -7 20 -6 11 -16 20 -22
20 -6 0 -3 -9 7 -20z"/>
<path d="M6114 6398 c-4 -7 -3 -8 4 -4 7 4 12 1 12 -8 0 -9 -7 -16 -15 -16 -8
0 -15 -4 -15 -10 0 -20 27 -10 38 14 14 32 -6 53 -24 24z"/>
<path d="M6077 6393 c-4 -3 -7 -11 -7 -17 0 -6 5 -5 12 2 6 6 9 14 7 17 -3 3
-9 2 -12 -2z"/>
<path d="M5338 6363 c7 -3 16 -2 19 1 4 3 -2 6 -13 5 -11 0 -14 -3 -6 -6z"/>
<path d="M5220 6346 c0 -2 7 -9 15 -16 9 -7 15 -8 15 -2 0 5 -7 12 -15 16 -8
3 -15 4 -15 2z"/>
<path d="M5030 6322 c0 -5 16 -16 35 -25 19 -9 35 -13 35 -9 0 5 -16 16 -35
25 -19 9 -35 13 -35 9z"/>
<path d="M5292 6308 c5 -15 28 -23 28 -10 0 5 -7 13 -16 16 -10 4 -14 1 -12
-6z"/>
<path d="M5685 6297 c11 -9 15 -19 10 -27 -5 -9 -4 -11 4 -6 7 5 23 -5 40 -23
32 -34 59 -43 40 -13 -15 23 -88 82 -102 82 -6 0 -3 -6 8 -13z"/>
<path d="M4578 6273 c12 -2 32 -2 45 0 12 2 2 4 -23 4 -25 0 -35 -2 -22 -4z"/>
<path d="M5110 6271 c0 -6 8 -18 18 -28 9 -10 26 -35 36 -55 11 -21 23 -38 27
-38 13 0 22 22 12 29 -5 3 -19 23 -32 44 -23 37 -61 67 -61 48z"/>
<path d="M4910 6259 c0 -5 5 -7 10 -4 6 3 10 8 10 11 0 2 -4 4 -10 4 -5 0 -10
-5 -10 -11z"/>
<path d="M5688 6204 c-14 -13 -9 -19 30 -39 20 -11 39 -23 42 -26 3 -3 12 -9
20 -12 12 -4 11 -6 -2 -6 -30 -2 -20 -21 12 -22 17 -1 36 -2 43 -3 10 -1 21
-12 54 -55 2 -3 8 0 14 6 16 16 -25 52 -106 94 -36 18 -65 37 -65 42 0 5 -6 7
-14 4 -9 -4 -16 1 -18 9 -2 9 -6 12 -10 8z"/>
<path d="M5405 6190 c-3 -5 -1 -10 4 -10 6 0 11 5 11 10 0 6 -2 10 -4 10 -3 0
-8 -4 -11 -10z"/>
<path d="M5494 6192 c-8 -5 -5 -13 7 -26 19 -20 23 -14 11 16 -4 10 -12 14
-18 10z"/>
<path d="M4583 6171 c-50 -4 -95 -10 -100 -15 -9 -9 168 2 219 14 l33 8 -30
-1 c-16 0 -71 -3 -122 -6z"/>
<path d="M2675 6147 c-16 -12 -32 -25 -33 -30 -2 -4 -15 -21 -29 -37 -22 -27
-31 -30 -85 -30 -149 0 -421 -59 -493 -107 -25 -17 -17 -16 36 3 93 32 199 57
322 73 132 18 168 14 126 -11 -98 -60 -129 -81 -125 -86 3 -2 13 -1 23 3 10 5
24 9 31 11 8 1 22 10 31 18 23 21 49 20 53 -1 2 -11 30 17 86 86 73 90 102
132 91 131 -2 0 -17 -11 -34 -23z"/>
<path d="M5304 6156 c-10 -8 -17 -17 -14 -19 3 -3 16 3 30 13 29 22 14 27 -16
6z"/>
<path d="M5210 6140 c0 -14 -7 -20 -22 -21 -20 -1 -20 -2 -4 -6 15 -4 16 -7 5
-15 -11 -7 -9 -8 6 -6 11 2 20 8 20 15 0 6 3 15 8 19 10 11 9 34 -3 34 -5 0
-10 -9 -10 -20z"/>
<path d="M5680 6140 c0 -5 5 -10 11 -10 5 0 7 5 4 10 -3 6 -8 10 -11 10 -2 0
-4 -4 -4 -10z"/>
<path d="M5471 6093 c-23 -27 -41 -52 -41 -56 0 -4 -11 -20 -25 -35 -14 -15
-25 -30 -25 -35 0 -17 49 30 66 63 9 19 19 29 21 23 3 -7 9 -13 15 -13 7 0 6
5 -1 14 -9 11 -8 17 7 28 18 12 40 58 28 58 -2 0 -23 -21 -45 -47z"/>
<path d="M3080 6116 c0 -16 27 -29 43 -19 6 4 8 0 4 -10 -3 -10 -2 -17 3 -17
5 0 7 -7 4 -15 -6 -15 -2 -17 48 -17 18 -1 25 -5 21 -14 -4 -10 4 -14 28 -13
31 0 32 1 12 9 -32 13 -29 20 8 20 26 0 30 -3 27 -22 -2 -13 -7 -26 -12 -29
-18 -13 12 -15 79 -3 39 6 62 12 53 13 -10 0 -18 8 -18 16 0 8 -10 20 -22 26
-14 8 -18 14 -10 17 6 2 12 9 12 15 0 14 44 36 74 39 34 2 -172 16 -266 17
-69 1 -88 -2 -88 -13z m277 -112 c-3 -3 -12 -4 -19 -1 -8 3 -5 6 6 6 11 1 17
-2 13 -5z"/>
<path d="M5277 6119 c7 -7 15 -10 18 -7 3 3 -2 9 -12 12 -14 6 -15 5 -6 -5z"/>
<path d="M5720 6120 c0 -5 5 -10 10 -10 6 0 10 5 10 10 0 6 -4 10 -10 10 -5 0
-10 -4 -10 -10z"/>
<path d="M5302 6088 c-7 -7 -12 -9 -12 -5 0 4 -8 -1 -18 -10 -11 -10 -17 -21
-15 -24 3 -8 -38 -37 -87 -61 -19 -9 -29 -17 -22 -17 17 -1 15 -21 -3 -21 -8
0 -15 -5 -15 -11 0 -5 6 -7 13 -3 48 28 198 164 180 164 -5 0 -14 -5 -21 -12z"/>
<path d="M5727 6089 c7 -7 15 -10 18 -7 3 3 -2 9 -12 12 -14 6 -15 5 -6 -5z"/>
<path d="M5015 6080 c-19 -8 -19 -9 3 -9 12 -1 22 4 22 9 0 6 -1 10 -2 9 -2 0
-12 -4 -23 -9z"/>
<path d="M5230 6079 c0 -5 5 -7 10 -4 6 3 10 8 10 11 0 2 -4 4 -10 4 -5 0 -10
-5 -10 -11z"/>
<path d="M5773 6083 c-15 -5 -17 -23 -4 -23 5 0 11 7 15 15 3 8 4 15 3 14 -1
0 -8 -3 -14 -6z"/>
<path d="M5600 6070 c10 -6 11 -10 3 -10 -7 0 -13 -5 -13 -10 0 -7 7 -7 21 1
12 6 31 9 43 7 14 -3 23 0 23 9 0 9 -15 13 -46 13 -33 0 -42 -3 -31 -10z"/>
<path d="M5509 6057 c6 -8 8 -17 4 -20 -3 -4 -1 -7 5 -7 22 0 12 -18 -13 -24
-14 -4 -25 -10 -25 -15 0 -4 -9 -18 -20 -31 -11 -13 -20 -28 -20 -34 0 -6 7 0
16 12 8 12 22 22 31 22 10 0 13 6 9 16 -4 11 -2 15 8 11 18 -7 60 37 53 55 -4
10 -6 10 -6 1 -1 -20 -19 -15 -26 7 -3 11 -11 20 -17 20 -7 0 -7 -4 1 -13z"/>
<path d="M5815 6060 c-3 -5 -5 -10 -3 -11 2 0 17 -3 33 -5 29 -5 29 -4 10 10
-24 18 -32 19 -40 6z"/>
<path d="M6206 6035 c4 -8 8 -15 10 -15 2 0 4 7 4 15 0 8 -4 15 -10 15 -5 0
-7 -7 -4 -15z"/>
<path d="M5920 6026 c0 -8 15 -20 33 -27 17 -7 35 -14 40 -17 4 -2 7 0 7 5 0
8 -64 53 -75 53 -3 0 -5 -6 -5 -14z"/>
<path d="M4761 6021 c-9 -6 -4 -10 17 -13 22 -3 29 -1 25 9 -6 15 -22 17 -42
4z"/>
<path d="M5455 6020 c3 -5 8 -10 11 -10 2 0 4 5 4 10 0 6 -5 10 -11 10 -5 0
-7 -4 -4 -10z"/>
<path d="M5563 5972 c-18 -30 -33 -62 -32 -71 0 -10 5 -7 12 9 6 14 19 33 28
43 14 15 32 68 26 73 -1 1 -17 -23 -34 -54z"/>
<path d="M4066 5993 c-10 -3 -28 -14 -39 -24 -31 -29 2 -24 38 6 17 14 28 24
25 24 -3 -1 -14 -4 -24 -6z"/>
<path d="M4673 5983 c9 -2 25 -2 35 0 9 3 1 5 -18 5 -19 0 -27 -2 -17 -5z"/>
<path d="M5000 5980 c0 -5 -9 -10 -20 -10 -11 0 -20 -4 -20 -9 0 -10 71 -3 80
8 3 3 4 5 1 4 -2 -1 -12 2 -22 8 -13 6 -19 6 -19 -1z"/>
<path d="M6010 5980 c0 -5 7 -10 16 -10 8 0 12 5 9 10 -3 6 -10 10 -16 10 -5
0 -9 -4 -9 -10z"/>
<path d="M6185 5970 c3 -5 8 -10 11 -10 2 0 4 5 4 10 0 6 -5 10 -11 10 -5 0
-7 -4 -4 -10z"/>
<path d="M4540 5963 c-14 -3 -29 -9 -35 -15 -13 -12 46 1 60 13 5 5 7 8 5 8
-3 -1 -16 -4 -30 -6z"/>
<path d="M6055 5960 c3 -5 8 -10 11 -10 2 0 4 5 4 10 0 6 -5 10 -11 10 -5 0
-7 -4 -4 -10z"/>
<path d="M5355 5949 c-4 -6 -5 -12 -2 -15 2 -3 7 2 10 11 7 17 1 20 -8 4z"/>
<path d="M6070 5942 c-13 -14 -12 -15 3 -9 10 4 27 1 37 -5 14 -9 23 -9 30 -2
7 7 0 14 -23 21 -26 8 -36 7 -47 -5z"/>
<path d="M6330 5950 c0 -5 7 -10 16 -10 8 0 12 5 9 10 -3 6 -10 10 -16 10 -5
0 -9 -4 -9 -10z"/>
<path d="M3960 5940 c0 -5 5 -10 11 -10 5 0 7 5 4 10 -3 6 -8 10 -11 10 -2 0
-4 -4 -4 -10z"/>
<path d="M4775 5940 c-7 -12 15 -12 70 -1 l40 9 -52 1 c-28 0 -55 -3 -58 -9z"/>
<path d="M3880 5926 c0 -2 7 -6 15 -10 8 -3 15 -1 15 4 0 6 -7 10 -15 10 -8 0
-15 -2 -15 -4z"/>
<path d="M4375 5920 c-19 -8 -19 -9 2 -9 12 -1 25 4 28 9 7 12 -2 12 -30 0z"/>
<path d="M5036 5914 c-6 -15 -4 -15 11 -3 10 7 20 15 22 16 2 2 -3 3 -11 3 -9
0 -19 -7 -22 -16z"/>
<path d="M5095 5920 c-3 -6 1 -7 9 -4 18 7 21 14 7 14 -6 0 -13 -4 -16 -10z"/>
<path d="M6290 5910 c-14 -11 -30 -18 -37 -15 -7 2 -15 -1 -19 -8 -4 -7 -4 -9
1 -5 4 4 13 4 19 -1 7 -6 24 2 46 20 38 32 30 40 -10 9z"/>
<path d="M5310 5909 c0 -5 5 -7 10 -4 6 3 10 8 10 11 0 2 -4 4 -10 4 -5 0 -10
-5 -10 -11z"/>
<path d="M5405 5909 c-11 -17 1 -21 15 -4 8 9 8 15 2 15 -6 0 -14 -5 -17 -11z"/>
<path d="M4993 5888 c-25 -12 -29 -23 -11 -34 6 -4 8 -3 4 4 -3 6 3 13 14 17
11 3 20 11 20 16 0 11 1 11 -27 -3z"/>
<path d="M5269 5878 c-12 -23 -12 -23 10 -4 23 21 26 26 11 26 -5 0 -15 -10
-21 -22z"/>
<path d="M5380 5869 c0 -5 5 -7 10 -4 6 3 10 8 10 11 0 2 -4 4 -10 4 -5 0 -10
-5 -10 -11z"/>
<path d="M6040 5857 c-8 -7 -24 -23 -35 -36 l-20 -25 23 16 c13 9 30 26 38 37
17 24 16 26 -6 8z"/>
<path d="M4930 5849 c0 -5 5 -7 10 -4 6 3 10 8 10 11 0 2 -4 4 -10 4 -5 0 -10
-5 -10 -11z"/>
<path d="M5362 5820 c0 -14 2 -19 5 -12 2 6 2 18 0 25 -3 6 -5 1 -5 -13z"/>
<path d="M3990 5820 c0 -12 28 -25 36 -17 3 3 -4 10 -15 17 -15 7 -21 7 -21 0z"/>
<path d="M4895 5816 c-11 -6 -36 -22 -55 -35 -28 -18 -30 -21 -10 -15 14 3 27
11 28 15 2 5 12 9 23 9 10 0 19 5 19 10 0 6 7 10 15 10 8 0 15 5 15 10 0 12
-9 11 -35 -4z"/>
<path d="M4088 5813 c7 -3 16 -2 19 1 4 3 -2 6 -13 5 -11 0 -14 -3 -6 -6z"/>
<path d="M3930 5790 c-8 -5 -10 -10 -5 -10 6 0 17 5 25 10 8 5 11 10 5 10 -5
0 -17 -5 -25 -10z"/>
<path d="M5965 5790 c-3 -5 -1 -10 4 -10 6 0 11 5 11 10 0 6 -2 10 -4 10 -3 0
-8 -4 -11 -10z"/>
<path d="M5148 5783 c7 -3 16 -2 19 1 4 3 -2 6 -13 5 -11 0 -14 -3 -6 -6z"/>
<path d="M4785 5760 c-3 -5 -1 -10 4 -10 6 0 11 5 11 10 0 6 -2 10 -4 10 -3 0
-8 -4 -11 -10z"/>
<path d="M5452 5745 c0 -16 2 -22 5 -12 2 9 2 23 0 30 -3 6 -5 -1 -5 -18z"/>
<path d="M5930 5760 c0 -5 -7 -10 -17 -10 -9 0 -14 -3 -10 -6 8 -8 47 5 47 17
0 5 -4 9 -10 9 -5 0 -10 -4 -10 -10z"/>
<path d="M6353 5752 c-13 -2 -23 -9 -23 -17 0 -17 27 -27 36 -14 3 6 12 8 20
5 8 -3 14 -2 14 3 0 15 -24 27 -47 23z"/>
<path d="M5060 5735 c-16 -19 0 -19 26 0 16 12 16 14 3 15 -9 0 -22 -7 -29
-15z"/>
<path d="M5884 5709 c-19 -21 -19 -21 9 -8 15 7 27 16 27 21 0 14 -16 9 -36
-13z"/>
<path d="M5840 5702 c0 -6 -15 -16 -32 -22 -32 -9 -32 -10 7 -4 47 7 53 10 37
26 -9 9 -12 9 -12 0z"/>
<path d="M5331 5684 c0 -11 3 -14 6 -6 3 7 2 16 -1 19 -3 4 -6 -2 -5 -13z"/>
<path d="M5327 5647 c-11 -29 -9 -43 4 -30 6 6 9 19 7 29 -3 18 -4 18 -11 1z"/>
<path d="M5145 5640 c-3 -5 3 -10 14 -10 12 0 21 5 21 10 0 6 -6 10 -14 10 -8
0 -18 -4 -21 -10z"/>
<path d="M4006 5631 c-4 -5 3 -7 14 -4 23 6 26 13 6 13 -8 0 -17 -4 -20 -9z"/>
<path d="M3720 5620 c0 -5 5 -10 10 -10 6 0 10 5 10 10 0 6 -4 10 -10 10 -5 0
-10 -4 -10 -10z"/>
<path d="M1551 5596 c-7 -8 -10 -20 -6 -26 3 -6 -3 -10 -14 -10 -12 0 -21 -4
-21 -10 0 -5 -11 -12 -25 -16 -22 -5 -25 -11 -25 -53 0 -45 1 -47 51 -75 29
-16 60 -37 70 -47 35 -35 95 -56 68 -23 -7 9 -15 28 -17 42 -2 14 -7 33 -11
41 -4 9 -5 27 -1 41 3 14 0 41 -7 60 -6 19 -12 45 -13 58 0 14 -4 21 -11 16
-6 -3 -15 -1 -19 5 -5 9 -10 8 -19 -3z m-41 -86 c0 -5 -4 -10 -10 -10 -5 0
-10 5 -10 10 0 6 5 10 10 10 6 0 10 -4 10 -10z"/>
<path d="M4500 5568 c0 -21 2 -38 4 -38 9 0 12 50 5 62 -6 8 -9 -1 -9 -24z"/>
<path d="M5639 5558 c0 -33 -2 -38 -9 -23 -8 18 -9 18 -10 -5 l-2 -25 -9 25
c-8 23 -8 22 -5 -7 2 -29 1 -31 -13 -19 -10 9 -23 11 -36 6 -26 -11 -37 -12
-32 -2 3 4 0 16 -4 27 -9 18 -9 18 -5 -2 2 -13 1 -23 -4 -23 -4 0 -11 10 -15
23 -4 14 -8 17 -12 9 -4 -10 -9 -9 -19 5 -14 17 -14 16 -12 -7 3 -21 14 -29
63 -47 68 -25 115 -29 133 -11 14 14 16 118 2 118 -5 0 -10 -19 -11 -42z"/>
<path d="M2718 5573 c7 -3 16 -2 19 1 4 3 -2 6 -13 5 -11 0 -14 -3 -6 -6z"/>
<path d="M4880 5570 c-24 -8 -24 -8 5 -8 17 -1 48 3 70 7 l40 9 -45 0 c-25 0
-56 -4 -70 -8z"/>
<path d="M5297 5574 c-4 -4 -7 -17 -7 -28 1 -19 1 -20 11 -3 11 19 8 43 -4 31z"/>
<path d="M5115 5505 c17 -8 41 -14 55 -13 20 0 21 1 5 5 -11 2 -27 7 -35 10
-33 13 -54 11 -25 -2z"/>
<path d="M4627 5503 c-12 -20 14 -35 69 -43 33 -5 98 -17 147 -28 48 -10 87
-16 87 -13 0 4 -35 15 -77 25 -43 10 -96 26 -118 36 -52 23 -102 33 -108 23z"/>
<path d="M5261 5486 c-9 -10 -8 -15 4 -20 8 -3 15 0 15 7 0 8 3 8 9 -1 8 -14
140 -47 149 -38 2 3 -22 12 -54 22 -33 9 -71 23 -85 30 -23 11 -29 11 -38 0z"/>
<path d="M3308 5483 c7 -3 16 -2 19 1 4 3 -2 6 -13 5 -11 0 -14 -3 -6 -6z"/>
<path d="M2805 5450 c-13 -6 -15 -9 -5 -9 8 0 22 4 30 9 18 12 2 12 -25 0z"/>
<path d="M3190 5450 c-9 -6 -10 -10 -3 -10 6 0 15 5 18 10 8 12 4 12 -15 0z"/>
<path d="M4460 5430 c0 -12 8 -12 35 0 18 8 17 9 -7 9 -16 1 -28 -3 -28 -9z"/>
<path d="M2710 5418 c-41 -11 -75 -38 -48 -38 8 0 21 7 28 15 7 8 21 15 31 15
10 0 21 5 24 10 3 6 5 10 3 9 -2 0 -19 -5 -38 -11z"/>
<path d="M3093 5420 c-13 -5 -23 -12 -23 -15 0 -9 16 -5 36 10 22 16 19 18
-13 5z"/>
<path d="M3328 5423 c7 -3 16 -2 19 1 4 3 -2 6 -13 5 -11 0 -14 -3 -6 -6z"/>
<path d="M4346 5412 c-3 -5 8 -6 25 -4 16 2 29 6 29 8 0 8 -49 4 -54 -4z"/>
<path d="M4620 5410 c0 -5 4 -10 9 -10 6 0 13 5 16 10 3 6 -1 10 -9 10 -9 0
-16 -4 -16 -10z"/>
<path d="M1723 5350 c-9 -23 -23 -40 -32 -40 -9 0 11 -16 44 -34 33 -19 73
-44 88 -56 36 -29 50 -16 15 13 -15 12 -36 30 -47 39 -13 11 -23 35 -27 68 -4
27 -11 50 -16 50 -5 0 -17 -18 -25 -40z"/>
<path d="M3183 5383 c9 -2 23 -2 30 0 6 3 -1 5 -18 5 -16 0 -22 -2 -12 -5z"/>
<path d="M4058 5363 c7 -3 16 -2 19 1 4 3 -2 6 -13 5 -11 0 -14 -3 -6 -6z"/>
<path d="M3725 5321 c-16 -3 -25 -9 -19 -13 13 -9 54 1 54 13 0 5 -1 8 -2 8
-2 -1 -16 -4 -33 -8z"/>
<path d="M3788 5323 c6 -2 18 -2 25 0 6 3 1 5 -13 5 -14 0 -19 -2 -12 -5z"/>
<path d="M3658 5303 c7 -3 16 -2 19 1 4 3 -2 6 -13 5 -11 0 -14 -3 -6 -6z"/>
<path d="M2680 5290 c-13 -9 -13 -10 0 -10 8 0 22 5 30 10 13 9 13 10 0 10 -8
0 -22 -5 -30 -10z"/>
<path d="M3493 5283 c-18 -2 -33 -8 -33 -12 0 -10 59 -1 66 10 3 5 4 8 2 7 -2
0 -18 -3 -35 -5z"/>
<path d="M2350 5266 c0 -2 7 -7 16 -10 8 -3 12 -2 9 4 -6 10 -25 14 -25 6z"/>
<path d="M2957 5257 c28 -7 55 -15 59 -19 12 -12 72 -9 76 4 3 8 12 8 34 0
l29 -10 -30 -2 c-28 -2 -27 -3 10 -11 41 -8 114 -10 83 -2 -10 2 -18 9 -18 14
0 6 9 7 20 4 11 -3 20 -2 20 3 0 8 -65 15 -260 27 l-75 4 52 -12z"/>
<path d="M3403 5263 c9 -2 23 -2 30 0 6 3 -1 5 -18 5 -16 0 -22 -2 -12 -5z"/>
<path d="M4588 5263 c7 -3 16 -2 19 1 4 3 -2 6 -13 5 -11 0 -14 -3 -6 -6z"/>
<path d="M3310 5251 c-17 -5 -21 -9 -12 -15 7 -4 19 -2 27 4 8 7 24 9 36 5 14
-5 19 -4 15 4 -8 12 -28 13 -66 2z"/>
<path d="M3840 5211 c0 -8 79 -3 89 5 2 2 -17 4 -42 4 -26 0 -47 -4 -47 -9z"/>
<path d="M2468 5203 c7 -3 16 -2 19 1 4 3 -2 6 -13 5 -11 0 -14 -3 -6 -6z"/>
<path d="M3360 5200 c-49 -6 -44 -7 40 -8 52 -1 102 3 110 8 17 11 -59 11
-150 0z"/>
<path d="M3598 5203 c17 -2 47 -2 65 0 17 2 3 4 -33 4 -36 0 -50 -2 -32 -4z"/>
<path d="M3718 5203 c12 -2 32 -2 45 0 12 2 2 4 -23 4 -25 0 -35 -2 -22 -4z"/>
<path d="M2500 5185 c0 -2 15 -8 33 -13 17 -6 41 -13 52 -16 11 -4 2 3 -20 14
-38 19 -65 25 -65 15z"/>
<path d="M1860 5176 c0 -18 56 -115 67 -116 6 0 14 -13 18 -28 3 -15 15 -34
25 -42 11 -8 20 -19 20 -25 0 -6 13 -19 30 -28 22 -14 34 -32 46 -74 22 -74
121 -279 143 -295 9 -7 30 -31 46 -53 54 -72 69 -87 174 -171 57 -46 134 -97
170 -114 36 -17 82 -42 101 -56 61 -41 267 -108 485 -157 187 -43 642 -55 880
-23 130 17 323 58 360 76 11 5 82 30 159 55 149 49 185 64 151 65 -11 0 -92
-14 -180 -30 -232 -44 -479 -80 -546 -80 -103 0 -87 26 62 101 106 52 152 86
142 102 -3 6 -36 7 -82 3 -110 -10 -389 -55 -436 -70 -22 -8 -78 -21 -125 -29
-47 -9 -121 -23 -165 -31 -145 -27 -188 -30 -183 -16 2 8 17 18 34 23 16 5 61
24 99 42 39 18 97 42 129 54 62 22 96 45 96 67 0 21 -16 26 -128 34 -358 29
-663 94 -770 166 -17 12 -65 38 -105 58 -39 19 -101 61 -136 91 -35 31 -75 63
-88 72 -33 22 -31 47 5 39 35 -9 205 -72 257 -96 65 -30 150 -56 325 -99 91
-23 174 -46 184 -52 32 -19 342 -66 610 -94 220 -22 746 -19 746 5 0 4 -37 10
-82 14 -215 18 -472 58 -654 103 -16 3 -23 -1 -27 -17 -6 -21 -10 -22 -74 -18
-37 3 -93 12 -123 21 -30 9 -98 23 -150 32 -145 25 -461 106 -483 123 -7 5
-64 27 -127 47 -133 44 -255 92 -285 111 -12 8 -47 23 -78 33 -32 11 -76 30
-98 43 -37 20 -42 21 -52 7 -17 -23 -55 -33 -72 -19 -11 9 -15 9 -15 1 0 -6
-18 -11 -45 -11 -25 0 -45 3 -45 8 0 4 -15 14 -32 21 -38 17 -67 49 -68 73 0
9 -13 30 -30 46 -16 17 -30 33 -30 36 0 3 -11 22 -25 42 -14 20 -25 34 -25 30z
m419 -240 c10 -12 8 -13 -8 -9 -12 3 -18 9 -15 14 7 12 10 11 23 -5z"/>
<path d="M2640 5131 c0 -8 41 -23 47 -17 2 1 -8 8 -22 14 -14 6 -25 8 -25 3z"/>
<path d="M5490 5114 c-36 -15 -98 -38 -139 -53 -41 -15 -76 -32 -78 -37 -5
-19 77 -47 120 -41 347 47 362 48 354 24 -2 -6 -40 -23 -86 -38 -89 -30 -101
-36 -80 -43 31 -11 310 -76 324 -76 8 0 15 -4 15 -10 0 -11 279 -14 318 -4 31
9 27 26 -11 44 -18 9 -59 31 -93 50 l-61 34 -189 -27 c-104 -14 -192 -23 -196
-19 -4 4 27 23 70 42 82 37 141 71 142 82 0 7 -67 27 -160 48 -30 7 -84 21
-119 31 -35 11 -64 19 -65 19 0 -1 -30 -12 -66 -26z"/>
<path d="M2710 5100 c0 -5 7 -10 16 -10 8 0 12 5 9 10 -3 6 -10 10 -16 10 -5
0 -9 -4 -9 -10z"/>
<path d="M4399 5105 c-3 -2 -47 -5 -98 -6 -118 -2 -100 -19 21 -19 67 0 102
-6 156 -25 71 -25 133 -30 222 -17 l44 7 -44 33 -44 32 -126 0 c-70 0 -129 -2
-131 -5z"/>
<path d="M2748 5053 c7 -3 16 -2 19 1 4 3 -2 6 -13 5 -11 0 -14 -3 -6 -6z"/>
<path d="M2800 5050 c0 -5 5 -10 12 -10 18 0 -3 -17 -27 -23 -11 -3 0 -3 24
-1 53 5 58 8 38 29 -17 17 -47 20 -47 5z"/>
<path d="M3585 5053 c-62 -5 -404 -42 -555 -59 -74 -9 -153 -18 -175 -20 -83
-9 -106 -15 -99 -26 7 -11 -113 -5 -153 8 -13 4 -15 3 -4 -4 9 -7 10 -11 2
-17 -7 -4 -19 -1 -28 7 -18 14 -155 19 -146 4 8 -12 105 -56 124 -56 9 0 25
-8 37 -18 11 -10 91 -39 179 -65 87 -27 192 -59 233 -73 129 -43 289 -82 464
-114 167 -31 169 -31 187 -12 18 20 19 20 106 1 48 -11 117 -28 153 -38 267
-78 1229 -138 1569 -97 74 9 136 18 139 21 3 3 -24 5 -59 5 -331 1 -1039 59
-1159 95 -25 8 -92 21 -150 30 -97 15 -258 46 -404 78 -33 7 -61 17 -63 23 -5
15 44 37 137 64 41 12 83 24 93 27 9 3 17 10 17 15 0 7 -27 8 -72 4 -114 -9
-296 -11 -304 -3 -19 19 28 26 256 42 377 25 592 43 599 51 3 3 -43 4 -104 0
-60 -3 -253 -8 -429 -12 -264 -5 -320 -4 -327 7 -5 8 -9 42 -9 77 0 34 -3 61
-7 60 -5 -1 -26 -3 -48 -5z m-53 -35 c-17 -8 -26 -8 -34 0 -9 9 -4 12 23 11
32 0 33 -1 11 -11z m-159 -15 c-13 -2 -35 -2 -50 0 -16 2 -5 4 22 4 28 0 40
-2 28 -4z m-158 -13 c18 -8 17 -9 -7 -9 -15 -1 -30 4 -33 9 -7 12 12 12 40 0z
m-168 -16 c-3 -3 -12 -4 -19 -1 -8 3 -5 6 6 6 11 1 17 -2 13 -5z m-64 -11 c-7
-2 -21 -2 -30 0 -10 3 -4 5 12 5 17 0 24 -2 18 -5z m-103 -19 c0 -2 -15 -4
-32 -4 -23 0 -29 3 -19 9 12 8 51 4 51 -5z m-323 -10 c-3 -3 -12 -4 -19 -1 -8
3 -5 6 6 6 11 1 17 -2 13 -5z"/>
<path d="M2296 4992 c5 -5 28 -17 52 -27 35 -15 45 -16 55 -5 9 10 9 11 0 6
-7 -4 -30 2 -52 14 -40 20 -74 27 -55 12z"/>
<path d="M8408 4442 c-18 -15 -46 -36 -61 -45 -28 -18 -28 -18 -21 7 5 21 -1
18 -43 -21 -26 -25 -64 -57 -83 -72 -50 -37 -130 -113 -130 -123 0 -11 93 36
109 56 8 9 17 16 21 16 5 0 44 25 88 55 44 30 85 55 90 55 12 0 82 79 82 92 0
15 -19 8 -52 -20z"/>
<path d="M5367 4315 c-21 -7 -46 -20 -55 -28 -9 -8 -27 -20 -40 -26 -21 -11
-22 -11 -16 16 l7 28 -24 -21 c-29 -25 -91 -61 -219 -129 -52 -28 -93 -55 -90
-60 3 -6 7 -9 10 -8 3 1 46 18 95 37 206 78 285 117 350 170 37 31 31 38 -18
21z"/>
<path d="M6380 4010 c-36 -10 -96 -30 -133 -44 -92 -35 -104 -34 -77 5 12 16
20 33 17 35 -3 3 -38 -11 -79 -32 -40 -20 -90 -46 -111 -56 -20 -10 -110 -45
-199 -78 -88 -33 -166 -64 -172 -69 -6 -5 -26 -12 -43 -16 -48 -10 -50 -25 -4
-25 50 0 241 36 290 55 20 8 90 30 156 49 213 62 337 109 417 158 68 42 45 48
-62 18z"/>
<path d="M7315 3460 c-16 -11 -42 -22 -56 -25 -15 -4 -44 -15 -65 -26 -21 -10
-44 -19 -51 -19 -7 0 -36 -11 -65 -24 -29 -13 -68 -29 -85 -36 -18 -7 -33 -16
-33 -20 0 -11 -160 -80 -187 -80 -7 0 -55 -20 -105 -45 -51 -25 -98 -43 -104
-41 -15 6 -24 68 -12 83 13 17 4 53 -23 86 -16 21 -29 27 -59 27 -20 0 -42 -6
-48 -12 -6 -7 -10 -44 -11 -83 0 -38 -3 -98 -7 -132 -6 -61 -7 -63 -53 -89
-70 -41 -91 -63 -91 -99 0 -46 25 -65 75 -56 68 13 65 26 44 -192 -11 -118
-21 -157 -42 -157 -8 0 -26 -9 -41 -21 -36 -29 -34 -64 7 -103 l34 -31 -9
-100 c-14 -157 -16 -165 -39 -165 -34 0 -192 31 -229 45 -19 7 -50 16 -69 19
-19 4 -57 17 -85 31 -28 13 -112 44 -186 68 -78 26 -139 52 -145 62 -13 22 28
57 127 108 82 43 149 89 237 162 33 28 81 66 106 85 26 19 55 51 65 72 11 20
33 51 49 68 37 41 65 129 58 181 -14 104 -105 154 -312 174 -175 16 -611 -65
-681 -127 -11 -10 -25 -18 -31 -18 -9 0 -71 -25 -128 -50 -11 -6 -60 -25 -110
-44 -121 -46 -144 -58 -150 -77 -6 -19 9 -64 24 -74 14 -8 105 23 153 52 21
13 42 23 47 23 6 0 15 8 20 18 13 24 290 130 310 118 17 -11 22 -142 12 -372
-7 -185 -12 -238 -26 -267 -12 -26 -15 -45 -9 -65 7 -25 8 -211 2 -434 -2 -87
0 -99 17 -112 14 -10 24 -11 32 -4 7 5 17 7 22 3 6 -3 20 -1 32 6 20 10 21 17
18 117 -5 182 0 297 14 315 11 15 17 15 57 2 25 -7 106 -32 180 -55 74 -23
149 -48 167 -56 17 -8 37 -14 45 -14 7 0 47 -12 88 -26 41 -14 102 -30 135
-34 95 -13 147 -27 155 -40 4 -7 15 -54 24 -104 26 -146 42 -182 98 -217 44
-28 53 -31 101 -25 57 7 115 42 178 106 19 19 57 54 84 77 28 22 86 76 130
118 44 42 98 86 120 97 59 31 175 138 175 163 0 31 -12 41 -52 48 -29 4 -41 2
-50 -12 -7 -10 -26 -25 -41 -33 -47 -24 -297 -258 -297 -278 0 -6 -12 -16 -27
-23 -16 -6 -51 -35 -79 -63 -58 -59 -92 -79 -150 -88 -38 -7 -42 -5 -69 29
-28 38 -38 70 -49 163 -6 49 -6 52 16 52 13 0 43 9 67 20 24 11 52 20 62 20
10 0 28 9 39 20 16 16 18 24 9 50 -15 41 -47 40 -150 -4 -10 -4 -23 0 -33 10
-15 15 -17 30 -11 118 4 56 14 127 23 160 13 51 21 62 57 85 23 14 68 34 101
44 32 11 67 23 76 28 10 5 53 21 95 35 43 14 87 32 99 39 23 15 273 110 319
121 16 4 38 16 49 26 19 17 19 21 6 45 -26 45 -42 49 -112 28 -34 -10 -72 -23
-83 -28 -19 -10 -99 -39 -390 -142 -71 -25 -140 -51 -152 -57 -13 -6 -26 -8
-30 -5 -7 8 10 190 29 303 11 72 12 72 62 102 28 17 75 40 103 51 47 18 140
64 183 90 16 10 89 44 180 84 89 39 173 78 200 93 65 35 135 64 156 64 68 0
95 47 51 88 -29 27 -63 28 -102 2z m-1430 -384 c97 -13 121 -18 165 -37 69
-30 79 -54 49 -126 -22 -54 -90 -143 -110 -143 -5 0 -38 -29 -75 -65 -36 -36
-80 -72 -97 -80 -18 -8 -52 -30 -77 -49 -51 -40 -221 -136 -240 -136 -10 0
-11 57 -6 263 3 144 6 269 6 277 3 46 12 59 47 71 21 6 43 15 48 20 21 16 184
20 290 5z"/>
<path d="M8130 3459 c0 -14 7 -34 15 -46 32 -46 56 -180 65 -369 5 -102 7
-197 5 -212 -3 -15 -7 -108 -9 -207 -3 -155 -7 -188 -26 -237 -20 -55 -23 -58
-57 -58 -28 0 -50 13 -120 70 -47 38 -93 84 -103 102 -57 106 -80 153 -90 183
-6 18 -20 41 -30 50 -11 10 -20 23 -20 30 0 7 -9 22 -20 35 -11 13 -20 28 -20
35 0 6 -16 50 -35 98 -19 48 -35 97 -35 109 0 13 -11 45 -24 73 -14 27 -32 66
-40 86 -21 49 -38 61 -83 57 l-38 -3 1 -45 c0 -25 8 -88 19 -140 32 -166 25
-451 -18 -765 -8 -55 -14 -109 -15 -120 -2 -40 -29 -200 -36 -217 -14 -31 15
-71 58 -80 26 -6 43 -5 50 2 7 7 11 69 11 163 1 188 22 416 41 438 10 11 14
50 15 143 1 138 4 156 25 156 14 0 80 -110 99 -166 6 -19 21 -44 32 -56 11
-13 34 -47 49 -77 16 -29 35 -64 42 -77 22 -41 172 -183 215 -205 56 -29 132
-22 162 14 26 34 72 158 79 217 3 25 8 155 11 289 4 243 4 245 27 258 77 42
312 133 345 133 13 0 50 9 83 21 82 28 90 23 90 -50 0 -102 -40 -545 -52 -574
-16 -41 -2 -296 17 -317 8 -9 15 -24 15 -34 0 -19 26 -74 45 -93 7 -6 30 -11
51 -10 42 3 58 22 70 86 6 28 3 32 -29 46 -29 12 -38 23 -46 52 -20 78 -22
174 -6 358 9 105 18 228 21 275 2 47 11 127 20 179 9 51 14 101 11 112 -8 31
55 68 176 105 62 19 141 43 176 55 58 20 85 22 183 17 40 -2 55 15 50 56 -3
27 -12 40 -39 56 -50 30 -74 27 -273 -26 -14 -4 -34 -15 -45 -25 -11 -10 -42
-23 -69 -29 -50 -11 -243 -71 -376 -116 -41 -14 -105 -31 -141 -37 -36 -7 -72
-17 -80 -23 -36 -27 -213 -66 -229 -50 -16 16 -13 76 5 76 27 0 28 29 1 85
-14 30 -28 66 -32 79 -8 33 -65 76 -109 83 -32 5 -35 3 -35 -18z"/>
</g>
</svg>
